<svg width="792" height="224" viewBox="0 0 792 224" fill="none" xmlns="http://www.w3.org/2000/svg">
  <defs>
    <linearGradient id="brandStroke" x1="34" y1="24" x2="214" y2="204" gradientUnits="userSpaceOnUse">
      <stop stop-color="#67E8F9"/>
      <stop offset="0.52" stop-color="#38BDF8"/>
      <stop offset="1" stop-color="#2563EB"/>
    </linearGradient>
    <linearGradient id="brandFill" x1="44" y1="34" x2="196" y2="194" gradientUnits="userSpaceOnUse">
      <stop stop-color="#081120"/>
      <stop offset="1" stop-color="#040913"/>
    </linearGradient>
  </defs>
  <rect x="18" y="18" width="188" height="188" rx="52" fill="url(#brandFill)" stroke="url(#brandStroke)" stroke-width="8"/>
  <path d="M66 158L112 52L158 158" stroke="url(#brandStroke)" stroke-width="16" stroke-linecap="round" stroke-linejoin="round"/>
  <path d="M82 120H142" stroke="url(#brandStroke)" stroke-width="14" stroke-linecap="round"/>
  <path d="M164 62V134C164 154.987 146.987 172 126 172H110" stroke="url(#brandStroke)" stroke-width="16" stroke-linecap="round" stroke-linejoin="round"/>
  <g fill="#F8FAFC">
    <path d="M266.632 152V67.2H301.816C309.357 67.2 315.851 68.7547 321.296 71.864C326.741 74.888 330.915 79.1893 333.816 84.768C336.717 90.3467 338.168 96.8827 338.168 104.376C338.168 111.869 336.675 118.448 333.688 124.112C330.787 129.691 326.485 134.035 320.784 137.144C315.083 140.168 308.205 141.68 300.152 141.68H281.656V152H266.632ZM281.656 130.4H299.64C306.109 130.4 311.085 128.888 314.568 125.864C318.051 122.755 319.792 118.96 319.792 114.48V114.096C319.792 109.36 318.008 105.565 314.44 102.712C310.957 99.7733 305.896 98.304 299.256 98.304H281.656V130.4Z"/>
    <path d="M389.335 153.536C381.41 153.536 374.49 151.896 368.575 148.616C362.746 145.336 358.188 140.813 354.903 135.048C351.703 129.197 350.103 122.541 350.103 115.08V113.8C350.103 106.253 351.703 99.5973 354.903 93.832C358.188 87.9813 362.746 83.416 368.575 80.136C374.49 76.856 381.41 75.216 389.335 75.216C397.26 75.216 404.138 76.856 409.967 80.136C415.882 83.416 420.439 87.9813 423.639 93.832C426.924 99.5973 428.567 106.253 428.567 113.8V115.08C428.567 122.541 426.924 129.197 423.639 135.048C420.439 140.813 415.882 145.336 409.967 148.616C404.138 151.896 397.26 153.536 389.335 153.536ZM389.335 141.68C394.122 141.68 398.338 140.656 401.983 138.608C405.714 136.475 408.615 133.365 410.687 129.28C412.759 125.109 413.795 120.051 413.795 114.104C413.795 108.157 412.759 103.141 410.687 99.056C408.615 94.8853 405.714 91.776 401.983 89.728C398.338 87.5947 394.122 86.528 389.335 86.528C384.548 86.528 380.29 87.5947 376.559 89.728C372.914 91.776 370.055 94.8853 367.983 99.056C365.911 103.141 364.875 108.157 364.875 114.104C364.875 120.051 365.911 125.109 367.983 129.28C370.055 133.365 372.914 136.475 376.559 138.608C380.29 140.656 384.548 141.68 389.335 141.68Z"/>
    <path d="M472.08 153.536C464.581 153.536 457.917 151.896 452.088 148.616C446.259 145.336 441.701 140.813 438.416 135.048C435.216 129.283 433.616 122.627 433.616 115.08V113.8C433.616 106.253 435.259 99.5973 438.544 93.832C441.829 87.9813 446.344 83.416 452.088 80.136C457.917 76.856 464.496 75.216 471.824 75.216C480.219 75.216 487.181 77.264 492.712 81.36C498.243 85.3707 501.651 90.8213 502.936 97.712H488.296C487.357 94.2613 485.541 91.4347 482.848 89.232C480.155 86.944 476.541 85.8 472.008 85.8C465.965 85.8 461.157 88.0027 457.584 92.408C454.011 96.728 452.224 103.205 452.224 111.84V117.04C452.224 125.589 454.011 132.067 457.584 136.472C461.243 140.792 466.093 142.952 472.136 142.952C476.669 142.952 480.453 141.808 483.488 139.52C486.523 137.147 488.424 134.064 489.192 130.272H503.064C502.296 134.923 500.48 139.072 497.616 142.72C494.837 146.283 491.179 149.093 486.64 151.152C482.101 152.741 477.248 153.536 472.08 153.536Z"/>
    <path d="M520.491 152V67.2H535.515V152H520.491Z"/>
    <path d="M553.148 152V76.752H567.532V90.112C569.689 85.5467 573.06 82.0107 577.644 79.504C582.313 76.912 587.839 75.616 594.22 75.616V88.96H590.764C586.527 88.96 582.825 89.6427 579.66 91.008C576.58 92.3733 574.167 94.592 572.42 97.664C570.76 100.651 569.932 104.688 569.932 109.776V152H553.148Z"/>
    <path d="M620.631 153.536C614.204 153.536 608.545 152.485 603.655 150.384C598.764 148.197 594.899 145.104 592.058 141.104C589.216 137.104 587.7 132.384 587.51 126.944H604.294C604.655 130.763 606.354 134.016 609.391 136.704C612.516 139.307 616.668 140.608 621.847 140.608C626.929 140.608 630.874 139.531 633.681 137.376C636.582 135.221 638.032 132.549 638.032 129.36C638.032 125.915 636.407 123.387 633.157 121.776C629.999 120.08 625.543 118.571 619.789 117.248C616.095 116.397 612.336 115.291 608.511 113.928C604.687 112.565 601.296 110.912 598.338 108.968C595.381 107.024 593.068 104.72 591.401 102.056C589.83 99.3067 589.044 96.0987 589.044 92.432C589.044 87.12 591.007 82.752 594.935 79.328C598.961 75.904 604.559 74.192 611.728 74.192C618.712 74.192 624.324 75.872 628.564 79.232C632.9 82.5067 635.337 87.008 635.875 92.736H620.139C619.852 89.4293 618.45 86.832 615.932 84.944C613.514 83.056 610.296 82.112 606.276 82.112C602.45 82.112 599.484 82.912 597.38 84.512C595.277 86.112 594.225 88.352 594.225 91.232C594.225 93.2267 594.894 94.944 596.232 96.384C597.571 97.7387 599.391 98.9333 601.692 99.968C604.09 100.917 606.872 101.787 610.038 102.576C613.204 103.28 616.632 104.106 620.323 105.056C626.268 106.421 631.398 107.973 635.715 109.712C640.127 111.451 643.519 113.765 645.89 116.656C648.262 119.451 649.447 123.451 649.447 128.656C649.543 134.421 647.392 139.275 642.995 143.216C638.694 147.157 631.239 151.072 620.631 153.536Z"/>
  </g>
  <g fill="#94A3B8">
    <path d="M269.132 182.208H280.754V184.64H266.06V165.312H269.132V182.208Z"/>
    <path d="M302.681 184.64H299.609V165.312H302.681V184.64Z"/>
    <path d="M346.59 184.64H343.518L331.943 170.915V184.64H328.871V165.312H331.943L343.55 179.101V165.312H346.59V184.64Z"/>
    <path d="M388.919 175.706H380.542V182.208H390.267V184.64H377.47V165.312H390.124V167.776H380.542V173.274H388.919V175.706Z"/>
  </g>
</svg>
